# xmcd
#
# Track frame offsets:
#	150
#	14446
#	31039
#	51322
#	69202
#	94353
#	112634
#	128516
#	150016
#	170574
#	194809
#
# Disc length: 2835 seconds
#
# Revision: 1
# Processed by: cddbd v1.5.2PL0 Copyright (c) Steve Scherf et al.
# Submitted via: audiograbber 1.83.01
#
DISCID=800b110b
DTITLE=BLUES EX and THE VIRGIN HORNS - ON THE WOLFTRACK
DYEAR=2001
DGENRE=Blues
TTITLE0=Hey Babe
TTITLE1=Southern Comfort
TTITLE2=Don't change horses
TTITLE3=Ain' no love
TTITLE4=That noise must go
TTITLE5=What's it gonna take
TTITLE6=Walk around
TTITLE7=Crossfire
TTITLE8=out of sight, out of mind
TTITLE9=Out of the dark
TTITLE10=Once you get a taste
EXTD=
EXTT0=
EXTT1=
EXTT2=
EXTT3=
EXTT4=
EXTT5=
EXTT6=
EXTT7=
EXTT8=
EXTT9=
EXTT10=
PLAYORDER=
